<svg width="512" height="512" viewBox="0 0 512 512" fill="none" xmlns="http://www.w3.org/2000/svg">
<path d="M256 512C397.4 512 512 397.4 512 256C512 114.6 397.4 0 256 0C114.6 0 0 114.6 0 256C0 397.4 114.6 512 256 512ZM385 215C394.4 224.4 394.4 239.6 385 248.9C375.6 258.2 360.4 258.3 351.1 248.9L280.1 177.9V392C280.1 405.3 269.4 416 256.1 416C242.8 416 232.1 405.3 232.1 392V177.9L161.1 248.9C151.7 258.3 136.5 258.3 127.2 248.9C117.9 239.5 117.8 224.3 127.2 215L239 103C248.4 93.6 263.6 93.6 272.9 103L385 215Z" fill="#F6F7F9"/>
</svg>
