<svg width="579" height="550" viewBox="0 0 579 550" fill="none" xmlns="http://www.w3.org/2000/svg">
<path fill-rule="evenodd" clip-rule="evenodd" d="M160.214 45.5433C153.222 47.622 146.683 55.0677 139.616 58.0535C141.657 52.422 152.769 35.9055 139.049 21.2787C124.535 24.5291 118.715 43.5024 121.134 56.8063C122.192 62.4 124.762 65.726 126.69 69.8079C123.402 71.2819 107.792 86.022 105.751 89.1969C107.187 80.8819 111.685 78.085 108.624 66.2929C106.318 57.2976 102.879 54.6898 98.0409 49.4362C88.1386 53.9717 80.5417 74.2677 87.4205 89.4614C90.1039 95.3197 92.4094 96.378 95.7732 100.006C94.4126 103.899 82.2425 119.244 78.9165 124.044C78.9921 112.554 82.2047 95.4709 62.2488 85.6819C48.189 98.0409 51.0614 131.112 70.0346 138.406L59.4898 161.461C58.0535 158.967 57.9402 132.586 37.5307 127.559C25.5874 146.683 30.1228 171.288 51.6283 180.926L46.337 203.263C42.2929 198.35 42.822 190.942 35.5654 183.572C32.0126 179.943 23.5465 173.594 15.7606 174.69C12.1701 186.217 13.2661 198.841 18.822 208.025C26.2677 220.346 32.126 217.928 42.1039 224.088L40.1386 253.795C34.7717 245.594 33.4866 227.301 2.45669 226.696C3.2126 245.556 6.57638 259.276 22.9795 267.137C30.3874 270.69 32.4661 269.291 40.4031 270.879L44.1071 303.005C38.4378 295.786 37.3795 289.89 28.4598 284.787C20.5228 280.176 10.3181 278.476 0 280.894C1.24724 294.274 6.80315 303.345 13.7575 309.997C24.7181 320.542 30.9543 318.728 48.189 318.539C49.9654 329.197 55.3323 339.25 57.1843 348.737C41.2724 328.441 31.6724 327.118 7.37008 333.619C8.12598 348.321 26.7591 363.628 43.011 364.611C53.1402 365.254 54.9543 362.343 62.2488 361.209L75.5906 385.928C66.2551 382.035 66.2929 376.932 52.6866 375.572C38.7402 374.173 34.4693 377.839 25.3984 382.072C27.8929 391.899 39.6472 401.802 48.9827 405.392C67.8425 412.573 72.0756 405.128 85.3039 401.008C86.8535 402.142 100.724 420.283 101.14 421.304C93.6567 417.373 86.4756 413.556 74.7213 414.954C65.0835 416.126 55.0299 420.888 51.4394 426.671C56.4283 437.934 79.5969 451.465 99.8173 444.057C106.847 441.449 109.38 438.614 114.104 435.364C117.468 436.687 131.906 449.688 133.531 452.523C123.061 449.424 116.939 446.854 104.769 450.935C95.9244 453.921 87.7228 459.175 84.2079 466.016C89.7638 477.014 117.619 485.896 135.987 475.427C141.279 472.441 144.718 467.528 148.649 463.861C154.847 465.298 165.959 475.843 173.216 478.148C160.365 477.883 154.545 475.767 142.715 482.192C137.083 485.216 126.236 494.702 125.405 502.488C134.551 509.707 152.428 512.239 163.54 508.762C179.452 503.811 181.493 496.932 188.976 486.236C193.739 486.387 200.617 490.167 205.38 491.792C210.142 493.38 218.003 494.627 221.934 498.028C207.95 497.991 196.498 501.279 188.485 508.762C183.156 513.713 171.855 525.77 173.594 538.016C192.869 546.369 231.043 537.676 236.787 501.128L260.939 505.096C254.854 511.899 247.37 513.94 241.172 523.011C236.976 529.134 229.304 540.888 227.679 549.203L245.783 546.595C249.676 528.302 271.937 503.471 295.03 506.986C307.956 508.951 317.216 516.85 323.49 523.502C335.509 536.277 325.115 541.682 349.153 542.476C348.359 532.422 336.491 518.173 329.159 512.05C326.098 509.518 322.129 508.195 318.917 505.361C322.167 503.395 335.735 502.148 340.498 501.732C347.49 532.838 368.769 543.874 404.334 538.356C404.183 525.354 396.094 514.998 389.594 509.216C380.712 501.241 372.435 499.124 357.808 497.726C360.869 495.194 385.739 486.501 389.707 486.198C395.981 497.159 400.403 503.887 414.312 508.573C425.953 512.504 442.923 509.858 453.09 502.488C452.107 494.778 441.865 485.972 436.422 482.57C425.386 475.729 418.28 477.392 405.052 478.45L428.976 463.748C439.71 469.757 439.71 479.357 459.666 480.454C472.894 481.209 484.611 475.502 494.173 466.961C493.002 461.14 481.852 453.43 474.671 450.973C459.099 445.72 457.172 450.595 444.548 452.598C450.369 446.06 457.172 441.676 463.219 435.213C473.348 438.765 477.468 449.348 498.898 445.795C508.422 444.208 522.633 435.288 527.017 426.671C516.472 412.12 493.38 412.346 477.317 421.342C480.302 416.806 489.411 404.069 493.304 400.932C506.494 405.619 512.844 411.931 529.625 405.392C537.865 402.217 551.32 390.917 552.983 382.186C524.674 365.745 512.995 381.014 503.509 385.436C506.192 377.272 513.109 369.298 515.263 361.172C527.811 362.419 535.521 369.676 552.151 359.735C559.106 355.578 569.159 344.391 571.276 334.488C564.888 329.046 550.413 328.517 541.531 331.88C531.439 335.735 527.093 341.48 521.348 348.775L530.835 318.501C551.055 319.786 565.833 315.969 573.808 297.865C575.698 293.631 578.154 285.732 578.419 280.894C556.687 275.263 542.854 286.639 534.009 304.554L538.167 271.597C550.791 267.288 555.704 270.728 566.4 258.784C574.11 250.205 575.622 241.058 575.962 226.772C561.373 226.318 550.98 231.496 543.458 242.608C540.737 246.614 540.472 250.129 538.394 253.606L536.126 224.126C546.784 218.343 551.433 220.535 559.635 207.874C566.854 196.687 564.246 187.729 563.15 174.35C539.717 174.652 534.917 199.068 532.649 203.263L526.375 180.888C541.455 175.559 551.131 157.606 546.671 141.959L540.321 127.71C520.214 133.682 521.461 156.208 519.194 161.386L508.044 138.406C515.868 136.214 522.822 126.009 524.787 116.372C527.66 102.463 521.083 94.9417 517.569 85.6063C510.803 87.0425 505.247 93.7701 502.261 99.6283C497.802 108.397 499.2 113.839 499.654 124.006C496.743 120.68 494.438 116.75 491.49 112.592C488.731 108.737 484.422 104.655 482.91 100.271C502.904 80.4661 491.112 55.3701 480.794 49.5496C476.031 52.9134 471.987 58.2803 469.909 66.4063C466.847 78.274 471.496 81.3354 472.781 89.3102L462.69 79.0299C458.872 75.2504 455.206 72.6425 451.805 68.5606C452.674 64.7811 455.66 62.1732 457.134 56.3528C458.419 51.0992 458.041 45.2031 456.454 40.1764C454.035 32.4661 445.569 23.0929 439.521 21.3165C424.857 34.3937 437.216 50.8724 439.294 58.6583L413.594 42.0283C416.731 32.6173 419.263 25.4362 414.765 15.5717C411.969 9.52441 404.031 1.92756 396.321 0C392.315 4.7622 391.408 12.6992 393.071 20.1827C394.772 27.7795 397.606 29.8961 401.764 34.9984L408.794 40.3276C398.778 39.7984 397.38 35.452 385.398 40.4409C379.049 43.0866 372.132 48.2268 370.998 56.0882C380.069 63.3449 397.984 61.0772 406.035 52.3843C408.756 49.4362 410.532 44.674 412.649 42.9354C422.211 47.0173 436.649 59.1874 443.943 66.2173C435.175 63.7228 430.299 59.8299 419.036 63.4583C411.25 65.9906 406.186 71.2441 403.124 77.2157C407.546 82.1291 419.83 86.022 428.825 84.6236C442.62 82.5071 442.243 75.9685 449.121 70.9039C456.831 76.8378 469.909 90.2551 475.729 98.948C461.065 89.3102 441.751 87.0047 431.433 103.143C440.504 115.578 462.576 119.093 475.049 108.926C476.976 107.339 477.165 106.394 479.849 104.731C483.855 107.339 497.726 128.542 499.162 133.984C491.414 130.847 490.016 125.102 477.014 124.724C467.868 124.498 457.398 128.391 453.921 133.871C456.529 139.578 467.339 147.931 475.276 150.009C480.68 151.446 486.803 151.559 491.906 149.858C497.386 148.082 500.787 144.68 504.68 143.66C507.25 148.535 516.888 169.096 516.926 174.728C512.693 168.869 506.041 163.654 498.633 162.142C489.071 160.139 477.694 162.331 472.063 167.471C474.18 174.312 483.78 183.798 490.28 186.784C504.983 193.587 509.707 187.918 521.121 185.65C523.502 195.364 526.45 205.38 527.32 216C521.386 212.674 520.781 206.665 509.631 202.054C499.162 197.707 493.228 200.353 483.628 202.961C485.82 217.587 499.124 229.493 512.769 231.383C520.517 232.441 523.654 230.135 529.247 230.324C529.928 237.09 531.969 258.142 529.776 263.169C524.334 254.476 527.169 251.339 516.397 243.213C512.731 240.416 490.998 231.08 489.94 238.828L490.507 245.102C497.915 277.38 517.909 270.312 528.794 275.943C529.474 283.994 526.791 306.331 522.898 311.509C521.575 297.487 522.028 293.065 514.394 283.616C511.71 280.29 496.857 268.8 489.222 273.071C483.78 295.294 498.028 316.044 520.743 318.614C521.083 323.339 517.757 331.767 516.094 336.151C514.885 339.364 514.054 341.556 512.957 344.58C512.391 346.167 512.126 346.998 511.37 348.699L508.46 353.159C509.291 338.759 510.728 335.055 503.395 323.414C499.502 317.254 490.998 309.846 480.454 309.052C479.395 322.658 474.86 329.991 481.852 343.068C486.274 351.383 494.513 357.997 505.172 360.907C503.282 368.428 490.998 387.591 486.765 392.92C488.164 380.296 493.304 376.743 486.161 361.739C482.683 354.444 475.276 345.411 466.394 343.786C464.504 345.94 464.05 348.397 463.068 351.269C460.082 360.189 458.457 368.617 461.594 377.764C465.978 390.576 471.987 393.487 481.663 399.534C480.265 402.595 461.631 424.365 458.948 426.482C462.539 415.597 467.074 410.23 462.69 395.868C459.855 386.57 452.523 378.293 445.304 375.118C439.899 379.88 433.965 396.397 434.872 406.488C436.082 419.717 443.15 424.932 451.313 433.361C449.31 436.951 431.32 451.918 426.293 454.224C429.997 442.318 435.969 442.129 433.361 425.159C431.735 414.765 425.386 405.581 419.376 401.915C415.937 403.805 412.611 409.361 409.965 413.443C393.865 438.085 412.649 454.98 415.521 461.216C412.195 464.806 391.899 476.372 386.041 477.354C392.239 471.307 398.778 464.542 400.63 453.128C402.482 441.676 398.816 428.75 392.504 423.043C385.701 425.764 374.816 437.48 371.376 445.871C363.553 464.844 374.854 473.65 375.269 482.343C368.882 485.783 346.394 493.228 338.872 493.493C348.208 486.879 355.994 482.306 360.529 470.476C364.687 459.553 364.913 442.998 357.921 434.079C340.346 436.611 325.077 458.948 324.208 475.578C323.679 485.896 327.723 489.638 327.912 496.403C290.192 500.372 288.718 501.619 249.902 496.139C248.58 485.972 259.654 478.261 247.71 456.227C242.381 446.4 230.287 437.254 219.704 434.117C212.863 442.129 212.485 458.494 216.491 469.191C220.611 480.265 227.981 486.992 236.636 492.472C227.301 491.452 211.049 486.085 202.809 482.343C204.321 472.743 214.337 465.789 207.307 446.74C203.754 437.065 193.55 426.52 186.104 423.005C179.679 428.674 175.748 441.6 177.827 453.203C179.943 465.071 186.104 471.194 192.34 477.165C186.595 476.825 166.035 464.655 162.86 461.216C167.962 451.389 176.126 448.63 174.35 429.732C173.783 423.798 171.591 417.978 169.02 414.009C166.639 410.268 162.104 403.956 159.194 401.991C153.071 406.677 146.872 413.669 145.134 425.046C142.602 441.562 148.195 443.528 152.277 454.337C146.797 451.2 129.94 438.198 127.143 433.361C130.658 429.052 134.06 427.918 137.726 422.476C140.674 418.129 142.639 413.443 143.433 407.093C144.983 394.809 139.276 382.337 133.304 375.345C120.265 378.709 112.668 398.098 114.406 411.137C115.238 417.6 117.657 420.321 119.017 425.726C115.843 424.025 98.5701 404.409 96.9449 399.761C101.972 395.83 104.693 395.754 109.077 390.917C112.479 387.213 115.049 383.395 116.939 377.65C120.416 367.181 117.921 351.42 112.176 343.786C104.391 345.033 95.9622 354.482 92.7496 360.227C86.211 372.019 89.0835 379.049 91.3134 391.597L88.1386 388.233C87.2693 387.024 86.9291 386.306 85.9465 384.718C81.789 378.142 75.0992 369.298 73.6252 361.361C83.2252 355.691 90.3307 354.557 96.2646 343.521C103.37 330.255 99.326 323.301 97.9654 309.052C88.1008 309.846 78.6898 317.669 75.0236 323.263C66.8598 335.887 69.8079 338.683 69.9969 353.726C66.6709 349.984 57.2976 324.926 57.7134 318.501C69.0898 317.858 77.6693 311.924 83.263 304.63C89.4614 296.466 90.4819 284.334 89.5748 272.466C76.5732 272.995 70.6016 276.813 64.2142 283.654C56.6173 291.817 56.9953 297.449 55.5969 310.564C52.4976 305.272 48.6425 282.331 49.3228 274.885C65.7638 273.789 68.3339 273.827 78.0094 264.794C82.8094 260.334 90.6331 246.652 88.6677 237.09C76.422 235.805 70.6772 237.354 62.1732 243.175C54.0094 248.731 53.0646 255.345 48.7937 263.244C46.5638 257.764 48.4535 237.543 49.2472 230.362C54.652 230.135 58.2425 232.441 65.6882 231.458C79.1433 229.682 92.863 216.794 94.7528 203.112C75.0614 196.762 59.3386 202.772 51.9307 216.643L51.7795 208.932C52.3087 206.362 52.9134 203.565 53.5559 201.033C54.7654 196.044 56.3528 190.677 57.3732 185.65C68.4472 187.767 73.474 193.663 88.252 186.746C95.3953 183.42 103.824 174.803 106.394 167.471C100.989 162.217 89.9528 160.214 80.8819 162.142C71.1307 164.22 66.4063 169.247 61.6063 174.652C61.5685 169.323 71.5087 147.553 73.8142 143.584C83.7165 147.137 87.3449 153.751 102.539 150.161C111.609 148.006 121.965 139.049 124.498 133.871C120.68 128.731 111.08 124.573 101.594 124.762C89.0457 125.027 85.5685 130.583 78.5386 135.043C80.8441 128.693 94.6394 107.263 98.7213 104.504C107.452 110.362 109.531 115.54 122.759 115.2C134.929 114.86 140.031 108.51 147.024 104.542C145.323 97.0583 134.74 92.4094 127.521 91.5402C116.031 90.1417 109.38 94.7906 102.803 99.0236C106.847 93.5811 123.817 72.9071 129.449 70.8661C135.231 77.0268 138.482 82.7717 148.8 84.6992C159.458 86.7024 167.735 81.7134 175.294 78.0472C174.161 71.2819 166.224 65.726 159.345 63.5339C147.477 59.7165 143.357 63.5339 134.211 66.6709C139.502 58.3181 151.521 53.4425 158.778 47.0173L160.214 45.5433Z" fill="white"/>
<path fill-rule="evenodd" clip-rule="evenodd" d="M265.398 248.428C265.55 232.403 265.096 216.227 265.247 200.088C265.776 145.625 256.365 140.258 304.819 143.017C337.209 144.832 353.083 156.472 354.066 191.433C354.973 223.332 345.827 243.591 312.642 247.975C304.554 249.033 271.748 250.658 265.398 248.428ZM215.735 286.413L188.598 286.602C188.485 287.131 188.372 287.244 188.334 287.698C187.842 293.707 186.595 301.191 188.22 308.561L216.076 309.43C218.986 367.257 213.165 350.854 188.183 354.746L187.956 365.934C194.835 367.408 286.677 366.954 298.394 366.236L298.469 354.973C288.794 351.761 270.576 358.98 266.532 347.187C263.924 339.628 264.642 306.217 266.532 309.506L298.205 308.372L298.356 286.942C290.457 286.639 271.105 287.735 265.323 286.072L265.134 261.128C291.25 254.967 324.132 270.652 363.893 245.443C393.676 226.507 397.077 191.32 382.828 165.619C359.471 123.477 296.353 132.17 245.594 131.906C229.115 131.83 204.057 130.469 188.447 132.397C185.915 144.416 187.805 144.189 197.594 144.227C205.039 144.227 212.031 144.945 214.715 150.312C217.096 155.112 216.151 277.455 215.735 286.413Z" fill="white"/>
</svg>
